<mxfile host="app.diagrams.net" agent="Mozilla/5.0 (Windows NT 10.0; Win64; x64) AppleWebKit/537.36 (KHTML, like Gecko) Chrome/137.0.0.0 Safari/537.36" version="27.1.6">
  <diagram name="PÃ¡gina-1" id="mvjue8SFMnB6PMAnv8hG">
    <mxGraphModel dx="1426" dy="863" grid="1" gridSize="10" guides="1" tooltips="1" connect="1" arrows="1" fold="1" page="1" pageScale="1" pageWidth="827" pageHeight="1169" math="0" shadow="0">
      <root>
        <mxCell id="0" />
        <mxCell id="1" parent="0" />
        <mxCell id="uC4m1f2GsrIaZGrCeOs9-1" value="GISS Autoconfiguracion" style="rounded=0;whiteSpace=wrap;html=1;verticalAlign=top;" vertex="1" parent="1">
          <mxGeometry x="130" y="200" width="330" height="270" as="geometry" />
        </mxCell>
        <mxCell id="uC4m1f2GsrIaZGrCeOs9-2" value="GISS Batch" style="rounded=0;whiteSpace=wrap;html=1;verticalAlign=top;" vertex="1" parent="1">
          <mxGeometry x="580" y="200" width="500" height="270" as="geometry" />
        </mxCell>
        <mxCell id="uC4m1f2GsrIaZGrCeOs9-5" style="edgeStyle=orthogonalEdgeStyle;rounded=0;orthogonalLoop=1;jettySize=auto;html=1;entryX=0.5;entryY=0;entryDx=0;entryDy=0;" edge="1" parent="1" source="uC4m1f2GsrIaZGrCeOs9-3" target="uC4m1f2GsrIaZGrCeOs9-4">
          <mxGeometry relative="1" as="geometry" />
        </mxCell>
        <mxCell id="uC4m1f2GsrIaZGrCeOs9-6" value="Habilita" style="edgeLabel;html=1;align=center;verticalAlign=middle;resizable=0;points=[];" vertex="1" connectable="0" parent="uC4m1f2GsrIaZGrCeOs9-5">
          <mxGeometry x="-0.0889" y="1" relative="1" as="geometry">
            <mxPoint as="offset" />
          </mxGeometry>
        </mxCell>
        <mxCell id="uC4m1f2GsrIaZGrCeOs9-3" value="@EnableBatchCronjob" style="rounded=0;whiteSpace=wrap;html=1;fillColor=#d5e8d4;strokeColor=#82b366;" vertex="1" parent="1">
          <mxGeometry x="220" y="250" width="150" height="30" as="geometry" />
        </mxCell>
        <mxCell id="uC4m1f2GsrIaZGrCeOs9-23" style="edgeStyle=orthogonalEdgeStyle;rounded=0;orthogonalLoop=1;jettySize=auto;html=1;entryX=0;entryY=0.5;entryDx=0;entryDy=0;" edge="1" parent="1" source="uC4m1f2GsrIaZGrCeOs9-4" target="uC4m1f2GsrIaZGrCeOs9-7">
          <mxGeometry relative="1" as="geometry" />
        </mxCell>
        <mxCell id="uC4m1f2GsrIaZGrCeOs9-4" value="&lt;div&gt;JobLaunchHelper&lt;/div&gt;&lt;div&gt;Listeners&lt;/div&gt;Consumers Kafka&lt;div&gt;Producers Kafka&lt;/div&gt;" style="rounded=0;whiteSpace=wrap;html=1;" vertex="1" parent="1">
          <mxGeometry x="220" y="370" width="150" height="80" as="geometry" />
        </mxCell>
        <mxCell id="uC4m1f2GsrIaZGrCeOs9-19" style="edgeStyle=orthogonalEdgeStyle;rounded=0;orthogonalLoop=1;jettySize=auto;html=1;entryX=0.5;entryY=0;entryDx=0;entryDy=0;" edge="1" parent="1" source="uC4m1f2GsrIaZGrCeOs9-7" target="uC4m1f2GsrIaZGrCeOs9-8">
          <mxGeometry relative="1" as="geometry" />
        </mxCell>
        <mxCell id="uC4m1f2GsrIaZGrCeOs9-22" value="Ejecuta" style="edgeLabel;html=1;align=center;verticalAlign=middle;resizable=0;points=[];" vertex="1" connectable="0" parent="uC4m1f2GsrIaZGrCeOs9-19">
          <mxGeometry x="-0.16" y="3" relative="1" as="geometry">
            <mxPoint as="offset" />
          </mxGeometry>
        </mxCell>
        <mxCell id="uC4m1f2GsrIaZGrCeOs9-7" value="JobLaunchHelper" style="rounded=0;whiteSpace=wrap;html=1;" vertex="1" parent="1">
          <mxGeometry x="755" y="260" width="150" height="30" as="geometry" />
        </mxCell>
        <mxCell id="uC4m1f2GsrIaZGrCeOs9-16" style="edgeStyle=orthogonalEdgeStyle;rounded=0;orthogonalLoop=1;jettySize=auto;html=1;entryX=0.5;entryY=0;entryDx=0;entryDy=0;" edge="1" parent="1" source="uC4m1f2GsrIaZGrCeOs9-8" target="uC4m1f2GsrIaZGrCeOs9-9">
          <mxGeometry relative="1" as="geometry" />
        </mxCell>
        <mxCell id="uC4m1f2GsrIaZGrCeOs9-20" value="KO" style="edgeLabel;html=1;align=center;verticalAlign=middle;resizable=0;points=[];" vertex="1" connectable="0" parent="uC4m1f2GsrIaZGrCeOs9-16">
          <mxGeometry x="0.2932" y="-1" relative="1" as="geometry">
            <mxPoint as="offset" />
          </mxGeometry>
        </mxCell>
        <mxCell id="uC4m1f2GsrIaZGrCeOs9-18" style="edgeStyle=orthogonalEdgeStyle;rounded=0;orthogonalLoop=1;jettySize=auto;html=1;entryX=0.5;entryY=0;entryDx=0;entryDy=0;" edge="1" parent="1" source="uC4m1f2GsrIaZGrCeOs9-8" target="uC4m1f2GsrIaZGrCeOs9-10">
          <mxGeometry relative="1" as="geometry" />
        </mxCell>
        <mxCell id="uC4m1f2GsrIaZGrCeOs9-21" value="OK" style="edgeLabel;html=1;align=center;verticalAlign=middle;resizable=0;points=[];" vertex="1" connectable="0" parent="uC4m1f2GsrIaZGrCeOs9-18">
          <mxGeometry x="0.0737" y="1" relative="1" as="geometry">
            <mxPoint as="offset" />
          </mxGeometry>
        </mxCell>
        <mxCell id="uC4m1f2GsrIaZGrCeOs9-8" value="JobLauncher" style="rounded=0;whiteSpace=wrap;html=1;" vertex="1" parent="1">
          <mxGeometry x="755" y="340" width="150" height="30" as="geometry" />
        </mxCell>
        <mxCell id="uC4m1f2GsrIaZGrCeOs9-14" style="edgeStyle=orthogonalEdgeStyle;rounded=0;orthogonalLoop=1;jettySize=auto;html=1;entryX=0;entryY=0.5;entryDx=0;entryDy=0;" edge="1" parent="1" source="uC4m1f2GsrIaZGrCeOs9-9" target="uC4m1f2GsrIaZGrCeOs9-11">
          <mxGeometry relative="1" as="geometry">
            <mxPoint x="680" y="620" as="targetPoint" />
            <Array as="points">
              <mxPoint x="680" y="571" />
              <mxPoint x="790" y="571" />
            </Array>
          </mxGeometry>
        </mxCell>
        <mxCell id="uC4m1f2GsrIaZGrCeOs9-24" value="JobResultEvent" style="edgeLabel;html=1;align=center;verticalAlign=middle;resizable=0;points=[];" vertex="1" connectable="0" parent="uC4m1f2GsrIaZGrCeOs9-14">
          <mxGeometry x="-0.2333" relative="1" as="geometry">
            <mxPoint as="offset" />
          </mxGeometry>
        </mxCell>
        <mxCell id="uC4m1f2GsrIaZGrCeOs9-9" value="JobRejectedNotificationService" style="rounded=0;whiteSpace=wrap;html=1;" vertex="1" parent="1">
          <mxGeometry x="600" y="410" width="175" height="30" as="geometry" />
        </mxCell>
        <mxCell id="uC4m1f2GsrIaZGrCeOs9-15" style="edgeStyle=orthogonalEdgeStyle;rounded=0;orthogonalLoop=1;jettySize=auto;html=1;entryX=1;entryY=0.5;entryDx=0;entryDy=0;" edge="1" parent="1" source="uC4m1f2GsrIaZGrCeOs9-10" target="uC4m1f2GsrIaZGrCeOs9-11">
          <mxGeometry relative="1" as="geometry">
            <Array as="points">
              <mxPoint x="980" y="571" />
            </Array>
          </mxGeometry>
        </mxCell>
        <mxCell id="uC4m1f2GsrIaZGrCeOs9-25" value="JobResultEvent" style="edgeLabel;html=1;align=center;verticalAlign=middle;resizable=0;points=[];" vertex="1" connectable="0" parent="uC4m1f2GsrIaZGrCeOs9-15">
          <mxGeometry x="-0.2833" relative="1" as="geometry">
            <mxPoint as="offset" />
          </mxGeometry>
        </mxCell>
        <mxCell id="uC4m1f2GsrIaZGrCeOs9-10" value="GissJobCompletionListener" style="rounded=0;whiteSpace=wrap;html=1;" vertex="1" parent="1">
          <mxGeometry x="905" y="410" width="150" height="30" as="geometry" />
        </mxCell>
        <mxCell id="uC4m1f2GsrIaZGrCeOs9-11" value="tp.&lt;cappCode&gt;.&lt;cronjob&gt;-fin-batch" style="shape=image;verticalLabelPosition=bottom;labelBackgroundColor=default;verticalAlign=top;aspect=fixed;imageAspect=0;image=data:image/webp,UklGRpwYAABXRUJQVlA4TI8YAAAv/8F/EP8HJIT/59WICUjcwwMAUM9e5v937udJnmwZYm9q195UqBq1R8Xeu1ZQrS4am/IWNVOf2jM6Ubz26LCpGR1mbFlkP+N8Rl/NOefCdX2WiP5PALz0/0v/v/T/S/+/9P//AmuFFqtQq2mnNq/XKF0gyLA5aveeFns2HZ/64U9fTuhYxojZa0zYloI5fj82qobZcrT/6jGS31xQ01hVnHUfmV6OLmmgvHqdR87uHQ0Nk6PPFWT/Y1vLHHmNjEeRp1qZoprHUey2EiYodIEbBadH+xqf7o9Q+JV6Zsd3Acp3RtsMTpmzqMS9+Y1N9yeoyPiGhibKg8rM6mpirNmoUs8482JfjoqdZRkWr+9QuUsto2J9iQqeYVRmo5LHGZQRqGZPP2MS6VYUZjc1JK+koLIfFDIiPqdQ4Ye8TMhCVPo0A9LRozZ3C+OR6w4q/k6w6ViEyp9rOKq71OesYjRsvyDnzHNbFs/64JNPl//zmocTHrFMRn9km7VjXDUbPGXgm7PP8cG+BsPrTy7nRoVDDladl8zlTy9z0Qt5Hm9nQQ6HTEzggX2MhXWeRcIQCwhDF7hZXLaZig7IcVMYEEfc4oBdTMVRBhlvA334Lg5nDUUFpE9uCBztyxhgLTMxi+5eVeBpzWCw0EjYbpKlVAO28+keOUxEE6TObAx8bV+RYXsTsZJsFHAOjCP7ykBYD6m2WaygUgZVmo95qIzECXmA+SQqjDAPUVTDgLvvVapo8/At0Tk7O+hMddg42B4RdQP+totEWQGmoTLS/mEXAAOI8A3T0JXoPZDom0w00jRMonEXEQEriRaahnU0B0FmC6I9puEEzUdC/DNpbpqGZJr6QuAIjSfQLAQjabZDymwarGAWCtPEgdRBRBFmoTzNVjERRB3NQi2aJWJKEPU1C01oZosJJxpiFtrRTBTjQzTSLHSg+ViMw6S0oJklJjdRf7PQkGaRmOJEXcxCDZpvxNQnam0WytFcFNOX6HWzEEKTaZcynaicWYAUEqwpZS+Nx98wnKcZL8SRRnMXDON2ml1CGiHtUdPwOY0zr4wlRBtMQ38aHCXC+yHRONNQmei8JaELEjc0DfY0Gmwr4SSRK8A0wC9ERy1+LZH4HBjH2UTYk53XOaoF5qEx1b1gbmORurl58E4mwhXMXkmhSvU1D/ANFfZm5XMKqb8HA9mP7El1TsuRfICJCHxChQ/K8JmE5KlBJgLWkuGfJbiM9tCtBFVaxZuP+nz993tPxv155eTe7zcsjHqzpF3fNKXDO5V4TEaGDZVQqPfKs+mYk5kX1g4ooWds1+kwuRODgLXIMM4S59d56RWkvb6yZy79AmMYoGe+L1XFC8hxIMi2Gn2ZghzTN7T00i2BCQwQ/3iTxH9GFnK85RBVcMo15Hv3s1f0Ckxhgbi9To45hlxHnlEguMSyTOTt2lBJq+RN5YG4u7NvThSacAOZ3veXU361E/l7vq+jUeATLohJK3oWeCqryrg9LmQ7BKSGLXOj0NjC+iQgns1/vb574Qej+g9555OVR5OQ8xm7EKv/A5T75F1vXQL9WImNAJmVf0TZFxvrEttx9W0EkdaYLJTumeWlR6B8huoe5BURHIsqPF5Cj8AHqusEEmv+iWpMjtQjXsfVthIkDsxGVXqitQiUTVHZlWAJH3hQoTF2HQLtPOp6XBH4W3NQrd/56RCYoSx3O+DvvR5VezhEh9h3qepj4G/bhOr9yV+DgP9PaloMAuejird7axDIfUlFa20CJqGa19k0CBS5qZ5vvID/UFT1XB0CJX5XzUYH8H/dpSzsq0Mg3xm1LLIB/7y3Ud2pFXUIhP6sEM9HINC2G1V+MUCHgM+/KeNJV5A4EdW+QYsAjMxWQ1wFkNjApTjsrkeg4W0VbMkFEr3Po+rvhugRCI4RlzQEZI5H9X+uSQBa3Za1rSDILPzkGeCurUsgfIlTzm8dQOoW5JxydM2kUQMjB4yatPpoCic8ZtMlAK/uFpIQ5QCpEcjWc2R8LTs8rb32hJ88bLCHPgFo9YuApBmhIHc3l3uTikNOvjLlIZcLNo0C0Hgnsxtjg0BwLeQZP9wPcjpgzF0e+JZWAai6OJGNa0dXbxD9HYus2YFAGfy5i8VpS68A+Hb9J4tL4wqA8EoeDpcqA3XtPzlga90CEM4iEsSvRIarA4A++CsOe8xEwGMGs4ClNZuBu4iR6IX0o4Dr+3Q4wUjspvsQ+M6gu2giCrnIFgNjaxUZ1jAQ45H6mIMT+P1KNsdA7KZKKQG8y6ZSnTEPjlSq0cB9ApU73DhEIPFpOzvvC0T4lnH4hOpN4N+GarFxOER0CgRaZ4gumwZbOlE3CdCdyBNgGIojbbKfCN8kGqxqGFoQLQOZMURdDcNoopZCmhN9YhgW0ziDhPhn0mwwDHtofgGph2lOGoZzNDFiFtLcMgxXacaJGUmTbhge0LQX04IG/cxCJk2EmFpEoUbBC2mriylHlM8ohBCVF1OUqIhR8CeqLqYcUT6jYLloIsTUJgo1CpBE015MCyI/s3CL5h0xo2jSwCxcpokRs5DmhmH4meYXMUdoTuiVKiwWFhW1iSY7UEhAFs16fWKrN+M8Mj0ztbZNzAwafFNIc6SdpElszVY+QNbxM8sJGUy0VMgyoq5apOBHV1HgL8NCJDQlSvAR4UggqqI/rFbfO1Hok/kl+JUkwrdEdEZat7/usDqdRsmuzbW5tab6RcQxoougN21tT6H4PdU5lY5F8sYCmiHx53qj9SVUoXt9SS7Bc7OQ/ieLne0EVUedUXIrqjJrfi4O9sH3kWU/dkOR2BWqL/yiM1Cht9+ia3QGmd7Pw6xgAtVJ0JZNrqJitxWjKb4F+e6wWNkPIPVMXeGY40blPulPEDAtAzlPYDUFyStrinKnUMlfheaQFXkDeXt6M+rpITsDenJ4Oir6at0cqXsU2We+waZNNpKP0xKOFaju7GF/r9BaDwrMaM+kRzaSO/PriNwHUenz7U/n93EqynQO5WCNdyP9D6AhX4lDxf8z+GnaXkW5awPJcsUixzc0xOtJqPxz+f9FtUMo+koTotbXkOPPoB+bp+MzMK7Qf8m73I3S1xcnKP0V8mylH1pm4DPxj2LgGJ+MCsxeUS6HXl3rQp6nLO3QOhOfkdf7/4aq/Pnt/H+r0MjjyLYj6Ma2WfhcfnHh4Ij8DgDwyd9o8KJLyHi/pRvqpuPzfFZiFnLPKg+asfg9fMGeDpox13l8wb4RoBm89+ELtqcVaMYl+KL9D9CMnfBF+5hDMxRJeNFKLA560etHfMH2tAbNOBVlJh5dPW/ahGGjP5i1+OsLmc9XY0Ez1nTxyzoc3SQPPL29VOSSuOemmaAZ7SeQefrGNv6QwwWH//Jc9G+WbhiOvE8NCgbSMtMePvd8YwfNmC+R1Y9tLSAPiLr1fPO1L+jGtcj4bCPg6TM66Tlmng10Y20Pn5QxXsA2/1qPOh4N26ASz3jQjzuQ7Y6CwLrJLUW4loSB9ZFHGRk9QT/WRa7OaBswz71dCSfqwH9tnaKIuKqgIXdxuVUf+FvvucTd7WPBX1eJU8KqQNCQ9ZHppSIgsmOGrOzPcsFT+s1zi3vSB7TkTia/5AahjZIl7asIfzPiT2FfFwUtWcrN40AAiK2aKOZmF/j7gXMzBV1pDppyFrI8EwyCX0uXkTkjAHK0+Hq3kMcfOEBTOu6x+CM/iG7nlPBDacjx6nskPJoUBtqyC3JMLg3CR/L7sx2QVl+Zyez2uEDQmHtZRIL4WGZpk3yBOu/H8XycO3r4gM4s5OGwGOQH/8Hq62LA0R6x4CaLE1H5QHMOQ4bnfRUANV18LjcDtladmUcySO5uGFwK9OdOBp6GoMQFXB6/6wDejrpjY8+l5sDdg18MLw9aNFcmg5WgxuA7LDzrC4LMvHV7vPPxrMVfxm6MWTxlTI+auUCfRiJ9Yh5FQE8ONyNAv69jMAlUaZ1jcBo0fDxdSqgyoDuDLId+K4L0M0Gd9it0WEm/dabLzqcQGMKgl36bQ/c9qDQ4nW62fjtC11kpsInua+3mlUaW6KOW1nS/ardSSL4a1OqdQpZq6bZmdH0VA9vJsIBuG0JXVDXj6Orptplkv4Nqq9F11G2byNYrx5ZONlS3HSebqBw4RzZRt10n66KeLWQLddsDsqrqmUa2XrelkYWpZwjZN5rN8pB5q6c72Q+aLQCpM0C9rcn2aba8ZA8VFEH2k2YrTBavoNpkxzVbbrJEBTUhO6zZfMmcCmpPtluzgYsKfdXTi+x73faYLL96RpJt1m13yRqoZx7ZCt32O9kA9ewgm6HbDpLNVs9VshG6bQXZVuX4u8g66bZJZAk21TRD8rq6rRcZVlPNDLpCuq0B3TuqOUqWALq9IN0uxYQ6yQ5pN7hH5syvlqFI/rl+20aGUWr5kW6wfvuI7pRSSnnoaui3pnRYXSUzkDzBpt9yuem2KCQ4ie5r0PAX6Nzl1TER6YfruHl0uEYZgY8YlNNxjRm466hiNjLcX1nDeSXQ4QmbGipkcUDn52FibLlLVqrdtFXTmuWKhFpaBdYwwOFKsPYj00dv29n5RYyct+1SJj5t9pWtcwY3CtElnTkkFVfBYOR7tjGnsA5zf87GnHadnNMqSIcEpjPAo97yKqUzQowtxiSs/45spHb+NDqP9oA1HPAf4gIvI+/0yf50Xl12ZCPP7G1dfDXHayw8kcJsm5H9za4WTdiEm8g56dP8WgMucMDMxrLmocRDVQmKLE1D7hmLi+uM0Swwpaqk91Cma1l4DgXPTEeJ2auK6YvQdBZ4r7KcER4hiIlR3jngGPMIpaZ96NAVEMMDkyKkTEHJF5v9rVoXUHJcM11RPIsHZnQQYf8ChX9X6ql8ZjhR+KYwPQExTNA9xc6vwAEUnzkz8F/VuIDyb9TTE0WzmCAeLMjt9TuowjtDbH/RKx1V6Iy26QhYxgbvd2UVONeNivylFoD3IlTljtw6omgGG8Q9Zfl0voXqdK+ofAjVebmYhoBPGGHm3Pw86u7G59f4VzWETxwjxKw1pehe24bPtUkR+gFasELM+qaDgyJf1Cl83s1oqR9gCy9EfLSkfUjOlBq83YnPwWn19UPhFG6I6Do+p1/dsKewijUbufIGPi8nVNQO0FPAXz/47eS+rTuPnPkzHZ+v44tpB1gl5fk9LkQ7BMS9YOFWSzdA9cwXLIzSDjDqRSurtnaAxS9YeC1UO9i/f8HC5doBgs68YHnqawcoePPFCs95awcof/e5zXXt5ME9B09ed/HCMfoByt15VlzscFohcUu7lXfAXzsqdo/5nVFKAf0AZW8/G06Fg23wfTXcnF4e/n7F2fFc8DMNAaVvPQuOhwEABEZnyrvQxwty1hZ5mUlaXg0BJS6qb3cg/HXZHcLu9bYg522DH7HAGToCgneqbokXPGXrK5JiQoA2fC2LlFAdAfYFSnOOgKd3vJMsJTkS6PulMcCJWgJgmFNdic3gb+db7hZxrQxwrHybwXWbnoDav6nqaEnIyWqHBVwsDDyLxdFhY00BQauU5Ir2gpy1ut/kFhcOXAtcpVuhKwC6JKrnekPIef/J6aziiwHf0g/IUvy1BRTZphjnZ4FAWiyWUVZt4BzhosIe+gKg6SWVnKkF5I3OsBkLvCeRbdIZ4PNRmioejLQDQ/vQhzwOWMxsP1Pdt3QGQNHVThU8jg4CpiHzsxlkVwDuVV1EWElvAJRcniUtY34eYFx+F91nwH8xVZTuACi6OEPSg8l5gXnbJKKM/AIKZRJ9rz8A8r0bJ+XSYF9gb6UQLQGJMUSJOgQAGq5K45e4tIEFAksicUURFYmwoB4BCO4Tm8wp9ZtOPiCzI9EpkHmK6HVdAgDeTeZe4XFlXnMfEPse0Tgh44iGaRQACGcxCEQvJaokpALRPP0UKWsXzQNLiHWXZodhOEvzPUjdQnPZMNymmSVmKs1Dw5BBM1BMTxqXzSh4I21zMQ1pMJdRCCCqJ6YqUbhRCCV6VUwpooJGIZioopgSRIWNgt1DU0dMZaI8RgFSaZqKaUAUbBbu0vQW04XG7WUWfqeZImYiTQKYhdM0sWLW0vxmGLbT3BTzJ81ewzCXBksKKYq0iwzDYKIhQgYTjTYMEUT7hOwnam4Y8hG5i4go5CIqZhgggQYni5iCtGk207CVKCFIQFAi0W4wDWOIcLyAD5D4A+NQlSqlALv8yVR1jIPtIRGuZLcBiVO8jANsofK0YvYWUm8D89CPCh8WYlU8iWyYgQhKo8Kf/BgFnULqzDADAevJcJsXG+9dSP41mIgWdLjai4ljC9J3MBK2eDrc5sciYCfSJ/hol3wsuoqDmQzwaDEGpX9FhgtAs1aZd59FRmxbb2H5MxhgQnuybinIMLuoVvF7+zTyfTC/lChYxAFxS2GS4tuQ5ZegUUM+uIe8XbG1JBXLZoFPpoXnWL5P05Clq7Q+CZqWggIP1JUDK3ggPplfJUdqLkpDputBl9oG3kWZns0lxJTOYoKIv0ZHOJ7Kp/HUC8jWWUGXNDiNcjM/9RcCM/kgYvqpjdFjBkUOHBO98XQ6cp4HetR3lgtFX20ixP8qJ7F3g/VI5bMo3RMTJAI6PAO6gRYd60QFxlUUAduVtxd0qP96VGNqNxHFkhT3uLQOKXEWlTnfSwB09KitO2jQivGo0K1+AmCB0paBBq31CJV6NLcA758Vdt5PgzRPRcWeK8APSiYqK6Us6M96qajcK/n4QZ1URWU1A/1ZKREVfDaUH7R2KskdCfqz1F1U8s8B/KCXR0WjQX+G/IaK3mLxgwkKigb9aX2Nyv5IAIx0K8YTDRp0Iqrb3UYAdMpQimswaNBmboVhcikB0PyJQtLagAYNuYVKP2IXALVuKeNOPdChq1Dx70mA8B8Usb8A6NA2qPrMyhLAispWgCvaDjo0IF55eMwmAeC1m+LiG4MenYzPwH4ywD86S5Q7Jhj0aKE0Ttc2T+3RtFaFKg1aDJv3z8ec7gTJAHj1kKCfqoAuXYVc3fsGlYSn96o3+SobnCkFrD7xQu4MsECXlnczSZxaFHLSivjWwySjgBQAn2FXBdwY4Qv69Etk+fjDXJDjlb7lgZ/KAfDuG8fs9wEO0KiFslhsKQSkba6xeBwmCMDWelM6m4wtbe2gVeciw8fdgTpwAwecJAoAgvvs8XA4GRUOmtU/mcH5MsBwuJPBA4cwACjUZ9UNklur+xYB/doD6X8KBZZt0+nwLXn/9ZUhy/bfyYG7B2KGlgE9u4tujz8wbZRG94Ma/jJXzZ5jpy39MjY2dsWy6eN61QoGfVvQRXYiENi2dpK5iqhDJ7+D1FfzAOMRZPiuidhPlV0PWG8gO2QggrKo3gXeIdepnKHmoSMSn/NiBu2psKt5iCHy1AP2O6jWmIfzRFuAfyUP0VXj4O8kqiEAthFhXtNQH2n3gMSGVC1Nw2ii7iLgN6JPTMNymsf+MqYQfWsa9tBsBJlViM6Yht9ohgixHtIkGgYrg6aMEPiGBoPNQj4kfWxJmUhU2Sy8SnMSpHYlesMs1KLZKKY6UTuz0IhmgZgiRN3MQkua6WJCiAaahU40H4rxIhplFtrQRIvxJxphFhrRzBGTj2iQWahO84WY0kS9zUIZmt1imhO1MQsFaG6IGUlU1ywE0LiDpCwiKm0W4D4JvinlVxqnt2E4TDNbSJib5goYxuU054R0R9qtpuE9GqwsYzvRHNPQnmiuiPBsokGmoSRRQpCEj5G4jmmAGzQ4XoD/A6LH3sZhDdHdIH7jkXg7GMf+RDiXXb5kqnHmoThV9qvc1iJ1VfMAV4nwnB+vSKR+aDMQc6kwhlWJJLIYMJBVyXAso1xnkbyBiYBzZO6ubHwOIPmflpGYQIbOAUwCdiJ9NBjJwm4ydI9hEX4U6T2vmAnYSoe4NpCu7g1kuBsMZT0OeKkukfeELOTYyFTAAQ7o/iI3RcPzyPIIGMvmLBCfLCiQU/W2eZBnC3MBJ3ggpm9oaf97YSOOItfjYDBbcEHER18NrxH0rwq+MflINvJtZjLgGz5/GX9y/9adR86mIO/NYDSLpPKS+biQ2YCP1DcODKfPFdWd9zIdUCtLbRnVwHy+p7ahYECtrSrbDEY0z211/Z7LjEDDDFWlVAZT2s6lpqxmYE6HKckdCSZ1uopGg1G1lqrnIzCtExTjGgbmdaRbJZldwMT2zFbHk2ZgZt+4p4pLFcHU5t2thjWBYG7t0W55GVFgdlvckHa8Iphe/+gsSUlRdjDAZfaI8azJC2bY6hknY199MMe2tqf47akHZtnqeIyV86tqYKDLR1/jcnFCfjDU9uZrH9JdmVURzHbJIbFJOXc3dkgxMOFe1bpFbzyd+nT3D30xvk0JMOy5y9Zv2ioyslnTGsUC4aX/X/r/pf9f+v+l//83ZwA=;" vertex="1" parent="1">
          <mxGeometry x="789.5" y="530" width="81" height="81" as="geometry" />
        </mxCell>
      </root>
    </mxGraphModel>
  </diagram>
</mxfile>
